<?xml version="1.0" encoding="utf-8"?>
<!-- Generator: Adobe Illustrator 27.3.1, SVG Export Plug-In . SVG Version: 6.00 Build 0)  -->
<svg version="1.1" id="Layer_1" xmlns="http://www.w3.org/2000/svg" xmlns:xlink="http://www.w3.org/1999/xlink" x="0px" y="0px"
	 viewBox="0 0 283.5 189.3" style="enable-background:new 0 0 283.5 189.3;" xml:space="preserve">
<style type="text/css">
	.st0{fill:#ffffff;}
	.st1{fill:#73B242;}
</style>
<g>
	<path class="st0" d="M194.6,161.3c1.6,0,2.9-0.6,3.8-1.4v-3.8h-3.8v1.7h1.9v1.3c-0.5,0.4-1.1,0.5-1.8,0.5c-1.6,0-2.7-1.2-2.7-2.8v0
		c0-1.5,1.1-2.7,2.5-2.7c1,0,1.6,0.3,2.3,0.9l1.2-1.5c-0.9-0.8-1.9-1.2-3.5-1.2c-2.7,0-4.6,2.1-4.6,4.6v0
		C190,159.4,191.9,161.3,194.6,161.3 M181.2,156.7v-2.5h1.9c0.9,0,1.5,0.4,1.5,1.3v0c0,0.7-0.5,1.2-1.5,1.2H181.2z M179.2,161.2h1.9
		v-2.8h1.5h0l1.9,2.8h2.3l-2.2-3.1c1.1-0.4,1.9-1.3,1.9-2.7v0c0-0.8-0.3-1.5-0.8-2c-0.6-0.6-1.4-0.9-2.6-0.9h-4V161.2z M170.9,161.3
		c2.4,0,3.9-1.3,3.9-4v-5h-1.9v5c0,1.4-0.7,2.1-1.9,2.1c-1.2,0-1.9-0.7-1.9-2.2v-5h-1.9v5C167.1,160,168.6,161.3,170.9,161.3
		 M158.7,159.5c-1.6,0-2.7-1.3-2.7-2.8v0c0-1.5,1.1-2.7,2.6-2.7c1.6,0,2.7,1.3,2.7,2.8v0C161.3,158.3,160.3,159.5,158.7,159.5
		 M158.7,161.3c2.7,0,4.7-2.1,4.7-4.6v0c0-2.5-1.9-4.5-4.7-4.5c-2.7,0-4.7,2.1-4.7,4.6v0C154,159.3,156,161.3,158.7,161.3
		 M145,159.5v-1.9h2.2c1,0,1.4,0.4,1.4,1v0c0,0.7-0.5,1-1.4,1H145z M145,155.9v-1.9h1.9c0.8,0,1.3,0.3,1.3,0.9v0
		c0,0.7-0.5,0.9-1.4,0.9H145z M143.1,161.2h4.2c2,0,3.3-0.8,3.3-2.4v0c0-1.2-0.6-1.8-1.6-2.2c0.6-0.4,1.2-0.9,1.2-1.9v0
		c0-0.6-0.2-1.1-0.6-1.5c-0.5-0.5-1.3-0.8-2.3-0.8h-4.1V161.2z M129.7,161.2h1.9v-5.7l2.5,3.7h0.1l2.5-3.8v5.7h1.9v-8.8h-2.1
		l-2.3,3.7l-2.3-3.7h-2.1V161.2z M118.7,161.2h6.7v-1.7h-4.8v-1.8h4.2v-1.7h-4.2v-1.8h4.7v-1.7h-6.6V161.2z M106.4,161.2h2.2l2-3
		l2,3h2.3l-3.1-4.5l2.9-4.3h-2.2l-1.9,2.9l-1.8-2.9h-2.3l2.9,4.3L106.4,161.2z M98.8,161.3c2.4,0,3.9-1.3,3.9-4v-5h-1.9v5
		c0,1.4-0.7,2.1-1.9,2.1c-1.2,0-1.9-0.7-1.9-2.2v-5H95v5C95,160,96.4,161.3,98.8,161.3 M85.1,161.2h6.3v-1.8H87v-7h-1.9V161.2z"/>
	<path class="st0" d="M257.5,140.7h17.1v-4.4h-12.2v-4.7H273v-4.4h-10.6v-4.6h12.1v-4.4h-17V140.7z M235.2,140.7h16.2v-4.5h-11.2
		v-18h-5V140.7z M212.9,140.7H229v-4.5h-11.2v-18h-5V140.7z M188.4,140.7h17.1v-4.4h-12.2v-4.7H204v-4.4h-10.6v-4.6h12.1v-4.4h-17
		V140.7z M172.6,141.1c4.9,0,8.3-2.5,8.3-7V134c0-3.9-2.6-5.6-7.1-6.8c-3.9-1-4.9-1.5-4.9-3v-0.1c0-1.1,1-2,2.9-2
		c1.9,0,3.9,0.8,5.9,2.2l2.6-3.7c-2.3-1.8-5.1-2.9-8.4-2.9c-4.6,0-7.9,2.7-7.9,6.8v0.1c0,4.5,2.9,5.7,7.5,6.9c3.8,1,4.5,1.6,4.5,2.9
		v0.1c0,1.3-1.2,2.1-3.2,2.1c-2.6,0-4.7-1.1-6.7-2.7l-2.9,3.5C165.8,139.9,169.2,141.1,172.6,141.1 M145.2,136.6
		c-4,0-6.8-3.2-6.8-7.1v-0.1c0-3.9,2.8-7,6.8-7c4,0,6.8,3.2,6.8,7.1v0.1C152,133.4,149.2,136.6,145.2,136.6 M145.2,141.1
		c6.9,0,12-5.2,12-11.6v-0.1c0-6.4-5-11.6-11.9-11.6s-12,5.2-12,11.6v0.1C133.2,136,138.2,141.1,145.2,141.1 M103.6,140.7h4.9v-14.6
		l6.3,9.5h0.1l6.3-9.6v14.7h4.9v-22.5h-5.3l-5.9,9.5l-5.9-9.5h-5.3V140.7z M88.1,141.1c4.9,0,8.3-2.5,8.3-7V134
		c0-3.9-2.6-5.6-7.1-6.8c-3.9-1-4.9-1.5-4.9-3v-0.1c0-1.1,1-2,2.9-2s3.9,0.8,5.9,2.2l2.6-3.7c-2.3-1.8-5.1-2.9-8.4-2.9
		c-4.6,0-7.9,2.7-7.9,6.8v0.1c0,4.5,2.9,5.7,7.5,6.9c3.8,1,4.5,1.6,4.5,2.9v0.1c0,1.3-1.2,2.1-3.2,2.1c-2.6,0-4.7-1.1-6.7-2.7
		l-2.9,3.5C81.2,139.9,84.7,141.1,88.1,141.1 M51.8,140.7h4.9v-14.3l10.9,14.3h4.2v-22.5h-4.9v13.9l-10.5-13.9h-4.6V140.7z
		 M38,140.7h5v-22.5h-5V140.7z M17.9,140.9h4.4l9.1-22.7h-5.3l-5.9,15.9l-5.9-15.9H8.8L17.9,140.9z"/>
	<path class="st0" d="M233.9,112.4c4.9,0,8.3-2.5,8.3-7v-0.1c0-3.9-2.6-5.6-7.1-6.8c-3.9-1-4.9-1.5-4.9-3v-0.1c0-1.1,1-2,2.9-2
		s3.9,0.8,5.9,2.2l2.6-3.7c-2.3-1.8-5.1-2.9-8.4-2.9c-4.6,0-7.9,2.7-7.9,6.8v0.1c0,4.5,2.9,5.7,7.5,6.9c3.8,1,4.5,1.6,4.5,2.9v0.1
		c0,1.3-1.2,2.1-3.2,2.1c-2.6,0-4.7-1.1-6.7-2.7l-2.9,3.5C227,111.2,230.4,112.4,233.9,112.4 M201.1,112.1h17.1v-4.4H206V103h10.6
		v-4.4H206V94h12.1v-4.4h-17V112.1z M172.4,112.1h4.9V97.8l10.9,14.3h4.2V89.6h-4.9v13.9L177,89.6h-4.6V112.1z M158.7,112.1h5V89.6
		h-5V112.1z M137.4,102.7l3-7.3l3,7.3H137.4z M128.5,112.1h5.1l2.1-5h9.5l2.1,5h5.2l-9.6-22.7h-4.6L128.5,112.1z M99.6,112.1h4.9
		V97.5l6.3,9.5h0.1l6.3-9.6v14.7h4.9V89.6h-5.3l-5.9,9.5l-5.9-9.5h-5.3V112.1z M80.6,107.9c-4,0-6.8-3.2-6.8-7.1v-0.1
		c0-3.9,2.8-7,6.8-7c4,0,6.8,3.2,6.8,7.1v0.1C87.3,104.8,84.5,107.9,80.6,107.9 M80.5,112.5c6.9,0,12-5.2,12-11.6v-0.1
		c0-6.4-5-11.6-11.9-11.6c-6.9,0-12,5.2-12,11.6v0.1C68.6,107.3,73.5,112.5,80.5,112.5 M46.3,107.6V94.1h3.8c4.1,0,6.8,2.8,6.8,6.8
		v0.1c0,4-2.7,6.7-6.8,6.7H46.3z M41.3,112.1h8.8c7.1,0,12-4.9,12-11.3v-0.1c0-6.3-4.9-11.2-12-11.2h-8.8V112.1z"/>
	<g>
		<path class="st1" d="M138.5,51c0.6,0.1,1.2,0.1,1.8,0c0.1,0,0.2-0.1,0.3-0.1c0,0,0,0,0,0c0,0,0,0,0,0c0.2-0.1,0.4-0.1,0.6-0.1
			c0.1,0,0.1,0,0.2,0.1c0.1,0.1,0.1,0.1,0.2,0.2c0.2,0.1,0.5-0.1,0.7,0c0,0,0.1,0,0.1,0c0.1,0,0.1,0.1,0.2,0.1c0,0,0.1,0,0.1,0.1
			c0.9,0.8,2.1,0,3-0.6c0.1,0,0.1-0.1,0.2-0.1c1-0.6,1.8-1.4,2.6-2.2c0.7-0.7,1.3-1.4,2-2c0.3-0.3,0.7-0.7,0.9-1.1
			c0-0.1,0.1-0.1,0.1-0.2c0.6-1.1,0.4-2.2-0.3-3.2c-0.2-0.3-0.4-0.5-0.7-0.7c-0.2-0.1-0.3-0.3-0.5-0.4c-0.3-0.2-0.6-0.5-0.9-0.7
			c-0.4-0.3-0.5-0.5-0.7-0.5c0,0,0,0,0,0c0,0,0,0,0,0c0,0-0.1,0-0.1,0c-0.1,0-0.2,0.1-0.4,0.2c-0.6-0.5-1.2-1-1.8-1.4
			c-0.3-0.2-0.7-0.5-1-0.5c-0.2,0-0.4,0.1-0.6,0.3c-4.4,2.9-5.5,7.1-6.1,12C138.1,50.5,138.2,51,138.5,51"/>
		<path class="st1" d="M151.1,38c0.2,0.1,0.4,0.1,0.6,0.1c0.2,0,0.4,0,0.7,0c1.1-0.1,2.1-0.6,3.1-1c0.3-0.2,0.7-0.4,1-0.6
			c0.4-0.2,0.7-0.5,1-0.8c0.2-0.2,0.3-0.3,0.4-0.5c0.1-0.1,0.1-0.2,0.2-0.3c0.2-0.2,0.4-0.5,0.6-0.7c0.3-0.3,0.6-0.7,1-1
			c0.1-0.1,0.1-0.1,0.1-0.2c0.1-0.1,0.2-0.2,0.3-0.3c0.1-0.2,0.2-0.4,0.3-0.6c0.3-0.8,0.1-1.7-0.4-2.5s-1.1-1.3-1.8-1.9
			c-0.1-0.1-0.2-0.1-0.3-0.2c-0.1,0-0.1-0.1-0.2-0.1c-0.1-0.1-0.2-0.1-0.3-0.1c-0.2-0.1-0.3-0.2-0.5-0.2c-0.4-0.2-0.7-0.4-1-0.6
			c-0.2-0.1-0.4-0.2-0.6-0.3c-0.3-0.2-0.6-0.2-0.9-0.2c-0.4,0-0.8,0.1-1.3,0.4c-0.8,0.5-1.6,1-2.3,1.7c-0.1,0.1-0.2,0.2-0.3,0.3
			c-2.3,2.4-3,5.9-3.4,9.3c0.5-0.1,1-0.1,1.6-0.1c0.2,0,0.3,0,0.5,0.1c0.6,0.1,1.1,0.3,1.6,0.5C151,37.9,151.1,37.9,151.1,38
			C151.1,38,151.1,38,151.1,38"/>
		<path class="st1" d="M137.6,45c0.3-0.5,0.6-1,0.7-1.5c0.1-0.5-0.2-1-0.5-1.5c-0.3-0.3-0.6-0.6-0.9-0.8c-0.5-0.3-1.1-0.6-1.5-0.7
			c-1-0.4-2.2-0.4-2.9-1.3c-0.1-0.1-0.2-0.2-0.3-0.2c0,0,0,0,0,0c-0.1,0-0.2,0.1-0.3,0.2c-1.7,1.9-3.3,3.9-4.4,6.1
			c-1,2-1.7,4.2-1.6,6.4c0,0.3,0,0.6,0,0.9c0,0,0,0,0,0c0,0.1,0,0.3,0.1,0.4c0.1,0.1,0.2,0.1,0.4,0.1c0.2,0,0.5,0,0.8-0.1
			c0.3-0.1,0.5-0.2,0.6-0.3h0.3l0.3,0c1,0.6,2.4,0.9,3.4,0.3c0.5-0.3,0.9-0.7,1.2-1.2c1-1.4,1.9-2.8,2.9-4.2
			C136.4,46.7,137,45.8,137.6,45"/>
		<path class="st1" d="M120,48.9l0.5-5.6l0.6-6.6l-0.2-8.1l-0.9-7.4l-1-4.9l3-0.7l5.1-0.2l6.5,0.4l3.8-0.2l4.3-0.3l4.1,0.5l1.9,0.1
			c1.4-1.1,2.6-2.3,3.8-3.7l-2.8-0.1l-33.8,0.5l1.8,10.6l0.5,14.6l-0.3,13.3l0.6,12.2l7.4-0.4h3.1c0-0.1,0-0.2,0-0.2
			c0.2-1.2,0.6-2.4,1-3.5l-8.3,0.6L120,48.9z"/>
		<path class="st1" d="M168.6,32.4l-2.5-18.6l-4.6-0.7L160,13c-0.1,0.3-0.1,0.6-0.1,0.7l0,0.5l-0.2,0.4l-0.7,1.8l1.2,0.1l2.6,0.1
			l0.4,2.7v4.1l1.2,8.1v7.7l-0.3,11.4l-0.9,9.9l-8.1-0.5l-7.9-0.2l-1.5,0c0,0.1-0.1,0.3-0.1,0.4c-0.3,0.9-0.8,1.8-1.7,2.7
			c-0.1,0.1-0.1,0.1-0.2,0.2h0.6h1.8l10.2,0.8l10.6-0.1l-0.3-6.1l1.5-12.4L168.6,32.4z"/>
		<path class="st1" d="M135,38.6c0,0.2,0,0.4,0.1,0.5c0.1,0.1,0.2,0.1,0.3,0.2c1.3,0.3,2.7-0.5,3.9,0.1c0.3,0.1,0.5,0.3,0.8,0.4
			c0.6,0.2,1.2-0.3,1.7-0.7c1.5-1.3,2.9-2.7,4.1-4.2c0.7-0.9,1.4-1.9,1.4-3c0-0.6-0.6-1.8-1.3-1.8c-0.8,0-1.4-1.1-2.1-1.4
			c-0.4-0.1-0.8-0.1-1.2-0.3c-0.3-0.1-0.5-0.3-0.8-0.5c0,0,0,0,0,0c-0.2-0.1-0.4-0.2-0.6-0.2c-0.1,0-0.2,0-0.3,0c0,0,0,0,0,0
			c-1,0.4-1.8,1.2-2.5,1.9c-1.1,1.1-2.2,2.4-2.8,3.8C135.2,35.1,135.1,36.9,135,38.6"/>
		<path class="st1" d="M135.2,30.8c-0.2-0.6-0.5-1-1-1.3c-0.3-0.2-0.7-0.4-1-0.5c-0.1-0.1-0.3-0.1-0.4-0.2c-0.1,0-0.2-0.1-0.3-0.1
			c-0.7-0.3-1.4-0.7-2.2-1c-0.9-0.4-2.1-0.1-2.9,0.5c-0.2,0.2-0.4,0.3-0.6,0.5c0,0,0,0,0,0c0,0,0,0,0,0c-0.5,0.5-0.9,1.2-1.3,1.9
			c-0.1,0.2-0.2,0.5-0.4,0.7c-0.9,1.7-1.5,3.5-2,5.4c-0.1,0.4-0.2,0.9-0.2,1.4c0,0.3,0,0.5,0.1,0.8c1-0.2,2-0.3,2.9-0.1
			c0.9,0.2,1.8,0.9,2.7,0.8c0.3,0,0.6-0.1,0.9-0.2c0.5-0.2,0.9-0.5,1.3-0.8c0.4-0.3,0.7-0.5,1.1-0.8c0.2-0.2,0.4-0.3,0.6-0.5
			c0.4-0.4,0.7-0.9,1-1.3c0.5-0.8,0.9-1.6,1.2-2.4c0.2-0.5,0.4-1,0.5-1.5c0.1-0.3,0.1-0.6,0.1-1C135.3,31,135.3,30.9,135.2,30.8"/>
		<path class="st1" d="M150.8,16.1c-0.8,0.8-1.6,1.5-2.6,2.1c-0.4,0.3-0.9,0.6-1.3,0.8c-0.5,0.3-0.9,0.5-1.4,0.7
			c-0.9,0.4-1.9,0.8-2.9,1.1c-0.3,0.1-0.7,0.2-1,0.2c-0.1,0-0.2,0-0.3,0c-0.2,0-0.4,0-0.6,0c-0.1,0-0.2,0-0.3,0
			c-0.3,0-0.5,0-0.8-0.1c-0.1,0-0.2,0-0.2,0c-0.3-0.1-0.7-0.1-1-0.2c-0.1,0-0.1,0-0.2-0.1c-0.3-0.1-0.5-0.2-0.8-0.3
			c-0.1,0-0.2-0.1-0.3-0.1c-0.3-0.1-0.7-0.2-1-0.4c-0.2-0.1-0.4-0.2-0.6-0.3c-0.2-0.2-0.3-0.5-0.5-0.6c0,0-0.1,0-0.1,0
			c0,0,0,0,0.1,0c0,0,0,0-0.1,0c0,0,0,0,0,0c0,0,0,0-0.1,0c0,0,0,0-0.1,0c0,0,0,0,0,0c0,0,0,0,0,0c0,0-0.1,0-0.1,0
			c-0.1,0.1-0.2,0.1-0.2,0.2c-0.3,0.5-0.3,1-0.1,1.5c0.2,0.5,0.6,1,1.1,1.4c0.3,0.3,0.6,0.5,0.8,0.7c0.8,0.6,1.7,1.1,2.6,1.5
			c0.8,0.4,1.6,0.7,2.4,1c0.8,0.3,1.7,0.5,2.5,0.6c0.5,0.1,0.9,0.1,1.4,0.1c0.3,0,0.6,0,0.9,0c-0.3,0-0.6,0.1-0.9,0c0,0,0,0,0.1,0
			c0.3,0,0.7,0,1-0.1c0,0,0,0,0,0c0.1,0,0.2,0,0.3,0c0.3,0,0.6-0.1,0.9-0.2c0.1,0,0.2-0.1,0.3-0.1c0,0,0,0,0,0c0,0,0,0,0,0
			c0,0,0,0,0,0c0.4-0.1,0.7-0.3,1-0.4c0.9-0.5,1.6-1.1,2.4-1.8c0.7-0.6,1.3-1.2,2-1.8c0.7-0.7,1.5-1.3,2.1-2.1
			c0.2-0.2,0.4-0.5,0.5-0.8c0.2-0.3,0.3-0.6,0.4-0.9c0.2-0.6,0.5-1.1,0.7-1.7c0.3-0.8,0.7-1.7,1-2.5c0-0.3,0-0.7,0.1-1
			c0-0.1,0-0.1,0-0.2c0.1-0.4,0.2-0.9,0.3-1.3c0.2-0.9,0.3-1.7-0.1-2.4c0-0.1-0.1-0.2-0.2-0.2c0,0-0.1,0-0.1,0c0,0,0,0,0,0
			c0,0,0,0,0,0c0,0-0.1,0-0.1,0c0,0,0,0-0.1,0c-0.1,0-0.3,0.1-0.4,0.2c-0.2,0.1-0.5,0.4-0.6,0.6c-0.1,0.1-0.2,0.2-0.3,0.3
			c-0.6,0.8-1.2,1.5-1.8,2.3c-0.1,0.1-0.2,0.3-0.4,0.4c-0.5,0.6-1,1.2-1.5,1.8c-0.3,0.4-0.7,0.7-1,1.1
			C151.3,15.6,151,15.9,150.8,16.1"/>
		<path class="st1" d="M138.4,54c-0.3-0.2-0.7-0.3-1-0.5c-0.4-0.2-0.8-0.4-1.2-0.6c-0.1-0.1-0.2-0.1-0.4-0.1c0,0,0,0,0,0
			c-0.1,0-0.2,0-0.2,0c-0.1,0-0.1,0-0.2,0h0c0,0-0.1,0-0.1,0c-0.1,0.1-0.3,0.1-0.4,0.3c-0.6,0.9-1.2,1.8-1.9,2.7
			c-0.6,0.9-1.2,1.8-1.6,2.8c-0.1,0.2-0.1,0.4-0.2,0.6c-0.5,1.2-0.9,2.4-1.1,3.7c0,0,0,0.1,0,0.1c-0.1,0.3-0.2,0.9-0.3,1.5
			c-0.1,0.4-0.1,0.9-0.1,1.3c0,0.6,0.1,1.1,0.4,1.3h0c0,0,0.1,0,0.1,0.1c0,0,0,0,0.1,0c0.1,0,0.1,0,0.2,0c0,0,0.1,0,0.1,0
			c0.1,0,0.3,0,0.4,0c0.2,0,0.5,0,0.7,0c0,0,0,0,0,0c0.1,0,0.3,0,0.5,0c0.2,0,0.5,0,0.7,0c0.3,0,0.5,0,0.8,0c0.1,0,0.2,0,0.2,0
			c0.2,0,0.4,0,0.5,0c0.1,0,0.2,0,0.3,0c0.2,0,0.3-0.1,0.5-0.1c0.1,0,0.2,0,0.2-0.1c0.2-0.1,0.5-0.1,0.7-0.2
			c0.7-0.4,1.2-1.1,1.7-1.7c0.7-0.7,1.4-1.3,2.2-1.9c0.1-0.1,0.2-0.1,0.2-0.2c0.7-0.5,1.4-1.1,2.1-1.7c0.5-0.5,0.9-1,1.1-1.7
			c0,0,0-0.1,0.1-0.1c0.3-1-0.2-2.2-0.9-3C141.7,55.2,139.8,54.7,138.4,54"/>
	</g>
</g>
</svg>
