<svg width="491" height="35" viewBox="0 0 491 35" fill="none" xmlns="http://www.w3.org/2000/svg">
<g clip-path="url(#clip0_53_24)">
<path d="M34.38 20.91L28.3 11.95L12.4 34.43H0L21.72 3.8C23.14 1.83 25.21 0 28.5 0C31.79 0 33.71 1.67 35.18 3.8L56.34 34.43C56.34 34.43 35.48 22.53 34.37 20.91H34.38Z" fill="#F94D00"/>
<path d="M23.29 25.7202L16.96 34.4302H56.35L37.82 25.8202L23.29 25.7202Z" fill="url(#paint0_linear_53_24)"/>
<path d="M33.91 20.2302L37.82 25.8202L56.35 34.4302L42.75 14.7402L33.92 20.2302H33.91Z" fill="#F94D00"/>
<path d="M58.03 34.4299V11.3999H64.75V27.8099H79.53L75.19 34.4199H58.02L58.03 34.4299Z" fill="white"/>
<path d="M88.18 28.9202V34.4302H81.49V22.3902H98.98C100.38 22.3902 100.99 21.3602 100.99 20.1902C100.99 19.0902 100.32 18.1202 98.98 18.1202H81.52L85.97 11.4102H97.99C104.19 11.4102 107.74 15.0602 107.74 20.2202C107.74 25.3802 104.19 28.9302 97.96 28.9302H88.18V28.9202Z" fill="white"/>
<path d="M128.34 34.4299V25.8999H117.6V34.4299H110.85V11.3999H117.6V19.2499H128.34V11.3999H135.06V34.4199H128.34V34.4299Z" fill="white"/>
<path d="M147.46 34.43L151.53 27.82H155.89C156.82 27.82 157.93 27.82 158.54 27.89C158.25 27.51 157.61 26.45 157.2 25.72L153.94 20.11L145.24 34.43H137.26L149.72 13.92C150.65 12.37 151.96 11 154.06 11C156.16 11 157.41 12.27 158.37 13.92L170.48 34.43H147.46Z" fill="white"/>
<path d="M195.16 34.4302C188.32 34.4302 183.29 29.3702 183.29 22.7002C183.29 16.0302 188.32 11.4102 195.16 11.4102H209.13L204.82 18.1202H195.16C192.05 18.1202 190.04 19.2902 190.04 22.7002C190.04 26.1102 192.05 27.8302 195.16 27.8302H209.13L204.82 34.4402H195.16V34.4302Z" fill="white"/>
<path d="M218.81 34.43L222.88 27.82H227.24C228.17 27.82 229.28 27.82 229.89 27.89C229.6 27.51 228.96 26.45 228.55 25.72L225.29 20.11L216.59 34.43H208.61L221.07 13.92C222 12.37 223.31 11 225.41 11C227.51 11 228.76 12.27 229.72 13.92L241.83 34.43H218.81Z" fill="white"/>
<path d="M263.11 34.4302L259.41 28.7202H250.62V34.4302H243.9V22.3902H261.51C263.11 22.3902 263.98 21.7402 263.98 20.2202C263.98 18.7002 263.11 18.1202 261.51 18.1202H243.93L248.32 11.4102H260.66C265.06 11.4102 270.96 12.9602 270.96 19.7702C270.96 23.2102 269.24 26.2402 266.22 27.1002C266.74 27.5102 268.05 28.8902 270.7 32.5402L272.1 34.4302H263.11Z" fill="white"/>
<path d="M284.43 34.4302L288.77 27.8202H303.47C304.34 27.8202 304.84 27.4402 304.84 26.6202C304.84 25.8002 304.35 25.4202 303.41 25.4202H292.41C287.38 25.4202 285.08 22.6302 285.08 18.7402C285.08 14.0902 287.52 11.4102 293.61 11.4102H310.78L306.44 18.1202H292.96C292.06 18.1202 291.59 18.4002 291.59 19.2202C291.59 20.0402 292.06 20.3602 292.96 20.3602H304.02C308.74 20.3602 311.32 22.5302 311.32 26.7302C311.32 31.4802 309.4 34.4402 303.37 34.4402H284.42L284.43 34.4302Z" fill="white"/>
<path d="M314.09 34.4299V11.3999H337.11L332.75 18.1099H320.85V20.0399H335.93L332.18 25.6499H320.86V27.8199H337.16L332.85 34.4299H314.11H314.09Z" fill="white"/>
<path d="M358.35 34.4302L354.65 28.7202H345.86V34.4302H339.14V22.3902H356.75C358.35 22.3902 359.22 21.7402 359.22 20.2202C359.22 18.7002 358.35 18.1202 356.75 18.1202H339.17L343.56 11.4102H355.9C360.3 11.4102 366.2 12.9602 366.2 19.7702C366.2 23.2102 364.48 26.2402 361.46 27.1002C361.98 27.5102 363.29 28.8902 365.94 32.5402L367.34 34.4302H358.35Z" fill="white"/>
<path d="M386.58 31.6001C385.68 33.0501 384.34 34.3701 382.24 34.3701C380.14 34.3701 378.89 33.1501 377.96 31.6001L365.82 11.8901H374.09L382.36 25.6301L391.06 11.8901H399.03L386.57 31.6001H386.58Z" fill="white"/>
<path d="M401.27 34.4299V11.3999H407.99V34.4199H401.27V34.4299Z" fill="white"/>
<path d="M423.04 34.4302C416.2 34.4302 411.17 29.3702 411.17 22.7002C411.17 16.0302 416.2 11.4102 423.04 11.4102H437.01L432.7 18.1202H423.04C419.93 18.1202 417.92 19.2902 417.92 22.7002C417.92 26.1102 419.93 27.8302 423.04 27.8302H437.01L432.7 34.4402H423.04V34.4302Z" fill="white"/>
<path d="M439.16 34.4299V11.3999H462.18L457.82 18.1099H445.92V20.0399H461L457.25 25.6499H445.93V27.8199H462.23L457.92 34.4299H439.18H439.16Z" fill="white"/>
<path d="M463.14 34.4302L467.48 27.8202H482.18C483.05 27.8202 483.55 27.4402 483.55 26.6202C483.55 25.8002 483.06 25.4202 482.12 25.4202H471.12C466.09 25.4202 463.79 22.6302 463.79 18.7402C463.79 14.0902 466.23 11.4102 472.32 11.4102H489.49L485.15 18.1202H471.67C470.77 18.1202 470.3 18.4002 470.3 19.2202C470.3 20.0402 470.77 20.3602 471.67 20.3602H482.73C487.45 20.3602 490.03 22.5302 490.03 26.7302C490.03 31.4802 488.11 34.4402 482.08 34.4402H463.13L463.14 34.4302Z" fill="white"/>
</g>
<defs>
<linearGradient id="paint0_linear_53_24" x1="16.96" y1="30.0702" x2="56.35" y2="30.0702" gradientUnits="userSpaceOnUse">
<stop stop-color="#010B13" stop-opacity="0"/>
<stop offset="0.12" stop-color="#491E0D" stop-opacity="0.08"/>
<stop offset="0.23" stop-color="#882E08" stop-opacity="0.3"/>
<stop offset="0.33" stop-color="#B83B04" stop-opacity="0.55"/>
<stop offset="0.42" stop-color="#DB4502" stop-opacity="0.77"/>
<stop offset="0.49" stop-color="#F14A00" stop-opacity="0.94"/>
<stop offset="0.54" stop-color="#F94D00"/>
</linearGradient>
<clipPath id="clip0_53_24">
<rect width="490.03" height="34.43" fill="white"/>
</clipPath>
</defs>
</svg>
