<?xml version="1.0" encoding="utf-8"?>
<!-- Generator: Adobe Illustrator 28.2.0, SVG Export Plug-In . SVG Version: 6.00 Build 0)  -->
<svg version="1.1" id="Calque_1" xmlns="http://www.w3.org/2000/svg" xmlns:xlink="http://www.w3.org/1999/xlink" x="0px" y="0px"
	 viewBox="0 0 836 133" style="enable-background:new 0 0 836 133;" xml:space="preserve">
<style type="text/css">
	.st0{fill:#FFFFFF;}
</style>
<g>
	<path class="st0" d="M354.2,0.1c-9.1,0-24.2,5.2-31.2,17.7l-40.6,72.1c0,0-3.5,6.6-10.8,6.6c-7.5,0-10.8-6.7-10.8-6.7l-39.6-70.1
		C217.1,12.3,206.1,0,185.6,0c-21.3,0-30.3,10.9-35.5,19.6L110.4,90c0,0-3.5,6.5-10.7,6.5S89,90,89,90L43.9,10.2
		C40.4,3.9,33.8,0,26.5,0h-26l63.4,112.3c4.2,7.4,15.7,19.6,35.7,19.6c21.3,0,30.6-10.9,35.8-19.6L175.2,42c0,0,2.8-6.5,10.4-6.5
		c7.1,0,10.5,6.4,10.5,6.4l39.7,70.4c4.2,7.4,14.6,19.6,35.8,19.6c21.3,0,31-10.9,36.1-19.6l40.4-71.6c0,0,3.6-6.5,10.9-6.5l164.7,0
		c7.5,0,10.3,5.4,10.7,6.1c0.6,1,1.2,2.7,1.5,4l16.7-29.5c-2.3-3.4-10.8-14.2-25.8-14.7L354.2,0.1z"/>
	<path class="st0" d="M836.5,0L823,24c-3.5,6.3-10.2,10.2-17.4,10.2H603c-8.9,0-12.3,7.1-12.3,7.1l-41.1,72.9
		c-6.7,11.4-18.4,17.7-27.5,17.7l-177.6,0c-13.8-0.5-21.9-9.4-24.9-13.5l16.9-29.8c0.2,0.8,0.8,2.2,1.1,2.8
		c0.3,0.5,3.1,6.4,10.7,6.4l164.6,0c9.2,0,15.6-12.9,15.6-12.9l36.5-64.7c5.2-8.7,14.9-20.1,33.3-20.1L836.5,0z"/>
	<path class="st0" d="M638.6,132.2h26.1c7.2,0,13.8-3.9,17.4-10.2l41.7-74h-37.7L638.6,132.2z"/>
</g>
</svg>
